# xmcd CD database file
#
# Track frame offsets:
#	150
#	18120
#	38570
#	56000
#	73625
#	97767
#	119037
#	133795
#	153545
#	167947
#	182545
#	198170
#	215707
#	232775
#	250535
#
# Disc length: 3592 seconds
#
# Revision: 1
# Processed by: cddbd v1.5.1PL0 Copyright (c) Steve Scherf et al.
# Submitted via: CDex 1.51
#
DISCID=c40e060f
DTITLE=Various Artist - Nighttime Roundup
DYEAR=1992
DGENRE=Blues
TTITLE0=Tommy Tutone - Love is out there somewhere
TTITLE1=Tommy Tutone - Eventually
TTITLE2=The Sluggers - The Buzz
TTITLE3=Eli And The Stranger - The dark side of the man
TTITLE4=Warsaw Falcons - Sometimes
TTITLE5=Warsaw Falcons - Hard habit
TTITLE6=Mr. Twistür and Pointed Stick - Hard times in the U.S. of A.
TTITLE7=Full Moon Band - Contributing to the delinquency of A-minor
TTITLE8=Andy Arrow and the Twangtown Mavericks - Tear it up
TTITLE9=Richard Fagan - She's tough
TTITLE10=Larry Raspberry and The Highsteppers - The only way to win is surrender
TTITLE11=Larry Raspberry and The Highsteppers - When you cut me I bleed
TTITLE12=Gwil Owen and The Thieves - My silver tongue
TTITLE13=Gwil Owen and The Thieves - Ask any mirror
TTITLE14=B.C. and The Dartz - Lean, mean and hungry
EXTD=Taxim Records TX 2006-2 TA ard YEAR: 1992
EXTT0=
EXTT1=
EXTT2=
EXTT3=
EXTT4=
EXTT5=
EXTT6=
EXTT7=
EXTT8=
EXTT9=
EXTT10=
EXTT11=
EXTT12=
EXTT13=
EXTT14=
PLAYORDER=
